<?xml version="1.0" encoding="UTF-8"?>
<svg xmlns="http://www.w3.org/2000/svg" xmlns:xlink="http://www.w3.org/1999/xlink" width="262pt" height="262pt" viewBox="0 0 262 262" version="1.1">
<g id="surface1">
<path style=" stroke:none;fill-rule:nonzero;fill:rgb(100%,100%,100%);fill-opacity:1;" d="M 0.25 261.75 L 261.75 261.75 L 261.75 0.25 L 0.25 0.25 L 0.25 261.75 "/>
<path style="fill:none;stroke-width:5;stroke-linecap:round;stroke-linejoin:round;stroke:rgb(9.812927%,9.812927%,43.920898%);stroke-opacity:1;stroke-miterlimit:10;" d="M 2587.5 1121.875 L 2580.546875 1105.585938 L 2569.882812 1080.039062 L 2561.953125 1060.546875 L 2559.453125 1054.492188 L 2549.21875 1028.945312 L 2539.21875 1003.398438 L 2536.40625 995.976562 L 2529.414062 977.851562 L 2519.882812 952.304688 L 2510.859375 927.539062 L 2510.546875 926.757812 L 2501.445312 901.210938 L 2492.578125 875.664062 L 2485.3125 854.101562 L 2483.945312 850.117188 L 2475.507812 824.570312 L 2467.34375 798.984375 L 2459.765625 774.414062 L 2459.453125 773.4375 L 2451.757812 747.890625 L 2444.296875 722.34375 L 2437.148438 696.796875 L 2434.21875 685.859375 L 2430.195312 671.25 L 2423.515625 645.703125 L 2417.109375 620.15625 L 2410.9375 594.609375 L 2408.632812 584.609375 L 2405.039062 569.0625 L 2399.375 543.515625 L 2393.984375 517.929688 L 2388.867188 492.382812 L 2384.023438 466.835938 L 2383.085938 461.5625 L 2379.453125 441.289062 L 2375.117188 415.742188 L 2371.054688 390.195312 L 2367.304688 364.648438 L 2363.828125 339.101562 L 2360.585938 313.554688 L 2357.65625 288.007812 L 2357.539062 286.914062 L 2354.960938 262.460938 L 2352.578125 236.914062 L 2350.46875 211.367188 L 2348.632812 185.820312 L 2347.070312 160.234375 L 2345.820312 134.6875 L 2344.804688 109.140625 L 2344.101562 83.59375 L 2343.671875 58.046875 L 2343.554688 32.5 " transform="matrix(0.1,0,0,-0.1,0,262)"/>
<path style="fill:none;stroke-width:5;stroke-linecap:round;stroke-linejoin:round;stroke:rgb(10.717773%,29.80957%,51.5625%);stroke-opacity:1;stroke-miterlimit:10;" d="M 2587.5 1573.164062 L 2582.8125 1565.507812 L 2567.539062 1539.960938 L 2561.953125 1530.429688 L 2552.421875 1514.414062 L 2537.539062 1488.867188 L 2536.40625 1486.914062 L 2522.734375 1463.28125 L 2510.859375 1442.421875 L 2508.164062 1437.734375 L 2493.710938 1412.1875 L 2485.3125 1396.992188 L 2479.492188 1386.640625 L 2465.46875 1361.09375 L 2459.765625 1350.507812 L 2451.601562 1335.546875 L 2437.929688 1310 L 2434.21875 1302.851562 L 2424.453125 1284.453125 L 2411.210938 1258.90625 L 2408.632812 1253.90625 L 2398.125 1233.359375 L 2385.273438 1207.8125 L 2383.085938 1203.398438 L 2372.578125 1182.265625 L 2360.15625 1156.71875 L 2357.539062 1151.210938 L 2347.890625 1131.132812 L 2335.898438 1105.585938 L 2331.992188 1097.109375 L 2324.101562 1080.039062 L 2312.539062 1054.492188 L 2306.445312 1040.703125 L 2301.210938 1028.945312 L 2290.078125 1003.398438 L 2280.898438 981.71875 L 2279.257812 977.851562 L 2268.59375 952.304688 L 2258.203125 926.757812 L 2255.351562 919.492188 L 2248.046875 901.210938 L 2238.164062 875.664062 L 2229.804688 853.398438 L 2228.554688 850.117188 L 2219.140625 824.570312 L 2210.039062 798.984375 L 2204.257812 782.265625 L 2201.171875 773.4375 L 2192.539062 747.890625 L 2184.257812 722.34375 L 2178.710938 704.6875 L 2176.210938 696.796875 L 2168.398438 671.25 L 2160.898438 645.703125 L 2153.710938 620.15625 L 2153.164062 618.085938 L 2146.757812 594.609375 L 2140.078125 569.0625 L 2133.75 543.515625 L 2127.695312 517.929688 L 2127.617188 517.5 L 2121.914062 492.382812 L 2116.40625 466.835938 L 2111.25 441.289062 L 2106.367188 415.742188 L 2102.03125 391.40625 L 2101.835938 390.195312 L 2097.539062 364.648438 L 2093.59375 339.101562 L 2089.921875 313.554688 L 2086.601562 288.007812 L 2083.59375 262.460938 L 2080.898438 236.914062 L 2078.515625 211.367188 L 2076.484375 186.523438 L 2076.445312 185.820312 L 2074.6875 160.234375 L 2073.242188 134.6875 L 2072.109375 109.140625 L 2071.289062 83.59375 L 2070.820312 58.046875 L 2070.664062 32.5 " transform="matrix(0.1,0,0,-0.1,0,262)"/>
<path style="fill:none;stroke-width:5;stroke-linecap:round;stroke-linejoin:round;stroke:rgb(11.643982%,49.804688%,59.179688%);stroke-opacity:1;stroke-miterlimit:10;" d="M 2587.5 1919.453125 L 2571.367188 1897.65625 L 2561.953125 1884.726562 L 2552.65625 1872.109375 L 2536.40625 1849.6875 L 2534.101562 1846.5625 L 2515.625 1821.015625 L 2510.859375 1814.296875 L 2497.265625 1795.46875 L 2485.3125 1778.59375 L 2479.0625 1769.882812 L 2461.015625 1744.335938 L 2459.765625 1742.539062 L 2443.046875 1718.789062 L 2434.21875 1706.054688 L 2425.234375 1693.242188 L 2408.632812 1669.21875 L 2407.617188 1667.695312 L 2390.078125 1642.148438 L 2383.085938 1631.835938 L 2372.695312 1616.601562 L 2357.539062 1594.0625 L 2355.507812 1591.054688 L 2338.4375 1565.507812 L 2331.992188 1555.742188 L 2321.484375 1539.960938 L 2306.445312 1516.914062 L 2304.804688 1514.414062 L 2288.164062 1488.867188 L 2280.898438 1477.421875 L 2271.757812 1463.28125 L 2255.546875 1437.734375 L 2255.351562 1437.421875 L 2239.453125 1412.1875 L 2229.804688 1396.5625 L 2223.59375 1386.640625 L 2207.890625 1361.09375 L 2204.257812 1355.039062 L 2192.382812 1335.546875 L 2178.710938 1312.65625 L 2177.109375 1310 L 2161.953125 1284.453125 L 2153.164062 1269.335938 L 2147.03125 1258.90625 L 2132.304688 1233.359375 L 2127.617188 1224.960938 L 2117.8125 1207.8125 L 2103.515625 1182.265625 L 2102.03125 1179.53125 L 2089.414062 1156.71875 L 2076.484375 1132.773438 L 2075.625 1131.132812 L 2061.953125 1105.585938 L 2050.9375 1084.53125 L 2048.59375 1080.039062 L 2035.390625 1054.492188 L 2025.390625 1034.648438 L 2022.5 1028.945312 L 2009.804688 1003.398438 L 1999.84375 982.8125 L 1997.421875 977.851562 L 1985.234375 952.304688 L 1974.296875 928.75 L 1973.359375 926.757812 L 1961.679688 901.210938 L 1950.351562 875.664062 L 1948.75 871.953125 L 1939.21875 850.117188 L 1928.4375 824.570312 L 1923.203125 811.796875 L 1917.890625 798.984375 L 1907.65625 773.4375 L 1897.734375 747.890625 L 1897.65625 747.695312 L 1888.046875 722.34375 L 1878.710938 696.796875 L 1872.109375 678.046875 L 1869.6875 671.25 L 1860.9375 645.703125 L 1852.539062 620.15625 L 1846.5625 601.171875 L 1844.453125 594.609375 L 1836.679688 569.0625 L 1829.257812 543.515625 L 1822.1875 517.929688 L 1821.015625 513.476562 L 1815.390625 492.382812 L 1808.945312 466.835938 L 1802.890625 441.289062 L 1797.1875 415.742188 L 1795.46875 407.421875 L 1791.796875 390.195312 L 1786.757812 364.648438 L 1782.109375 339.101562 L 1777.8125 313.554688 L 1773.90625 288.007812 L 1770.351562 262.460938 L 1769.882812 258.75 L 1767.148438 236.914062 L 1764.296875 211.367188 L 1761.835938 185.820312 L 1759.765625 160.234375 L 1758.046875 134.6875 L 1756.757812 109.140625 L 1755.78125 83.59375 L 1755.234375 58.046875 L 1755.039062 32.5 " transform="matrix(0.1,0,0,-0.1,0,262)"/>
<path style="fill:none;stroke-width:5;stroke-linecap:round;stroke-linejoin:round;stroke:rgb(12.547302%,69.726562%,66.601562%);stroke-opacity:1;stroke-miterlimit:10;" d="M 1366.757812 32.5 L 1366.992188 58.046875 L 1367.734375 83.59375 L 1368.945312 109.140625 L 1370.664062 134.6875 L 1372.851562 160.234375 L 1375.507812 185.820312 L 1378.671875 211.367188 L 1382.34375 236.914062 L 1386.484375 262.460938 L 1386.640625 263.4375 L 1391.015625 288.007812 L 1396.015625 313.554688 L 1401.523438 339.101562 L 1407.5 364.648438 L 1412.1875 383.320312 L 1413.90625 390.195312 L 1420.703125 415.742188 L 1427.96875 441.289062 L 1435.703125 466.835938 L 1437.734375 473.242188 L 1443.789062 492.382812 L 1452.304688 517.929688 L 1461.289062 543.515625 L 1463.28125 548.945312 L 1470.585938 569.0625 L 1480.3125 594.609375 L 1488.867188 616.015625 L 1490.46875 620.15625 L 1500.898438 645.703125 L 1511.796875 671.25 L 1514.414062 677.109375 L 1522.96875 696.796875 L 1534.53125 722.34375 L 1539.960938 733.828125 L 1546.445312 747.890625 L 1558.671875 773.4375 L 1565.507812 787.1875 L 1571.25 798.984375 L 1584.140625 824.570312 L 1591.054688 837.8125 L 1597.34375 850.117188 L 1610.859375 875.664062 L 1616.601562 886.210938 L 1624.648438 901.210938 L 1638.710938 926.757812 L 1642.148438 932.773438 L 1653.085938 952.304688 L 1667.695312 977.773438 L 1667.734375 977.851562 L 1682.617188 1003.398438 L 1693.242188 1021.210938 L 1697.773438 1028.945312 L 1713.203125 1054.492188 L 1718.789062 1063.554688 L 1728.828125 1080.039062 L 1744.335938 1104.882812 L 1744.765625 1105.585938 L 1760.859375 1131.132812 L 1769.882812 1145.15625 L 1777.226562 1156.71875 L 1793.828125 1182.265625 L 1795.46875 1184.6875 L 1810.585938 1207.8125 L 1821.015625 1223.398438 L 1827.578125 1233.359375 L 1844.804688 1258.90625 L 1846.5625 1261.445312 L 1862.148438 1284.453125 L 1872.109375 1298.828125 L 1879.726562 1310 L 1897.539062 1335.546875 L 1897.65625 1335.742188 L 1915.429688 1361.09375 L 1923.203125 1371.992188 L 1933.554688 1386.640625 L 1948.75 1407.851562 L 1951.835938 1412.1875 L 1970.273438 1437.734375 L 1974.296875 1443.203125 L 1988.867188 1463.28125 L 1999.84375 1478.164062 L 2007.65625 1488.867188 L 2025.390625 1512.773438 L 2026.5625 1514.414062 L 2045.625 1539.960938 L 2050.9375 1546.992188 L 2064.804688 1565.507812 L 2076.484375 1580.859375 L 2084.140625 1591.054688 L 2102.03125 1614.453125 L 2103.671875 1616.601562 L 2123.242188 1642.148438 L 2127.617188 1647.734375 L 2142.96875 1667.695312 L 2153.164062 1680.703125 L 2162.8125 1693.242188 L 2178.710938 1713.476562 L 2182.8125 1718.789062 L 2202.929688 1744.335938 L 2204.257812 1746.015625 L 2223.125 1769.882812 L 2229.804688 1778.242188 L 2243.4375 1795.46875 L 2255.351562 1810.273438 L 2263.867188 1821.015625 L 2280.898438 1842.148438 L 2284.414062 1846.5625 L 2305.039062 1872.109375 L 2306.445312 1873.828125 L 2325.742188 1897.65625 L 2331.992188 1905.234375 L 2346.5625 1923.203125 L 2357.539062 1936.523438 L 2367.5 1948.75 L 2383.085938 1967.65625 L 2388.515625 1974.296875 L 2408.632812 1998.632812 L 2409.648438 1999.84375 L 2430.820312 2025.390625 L 2434.21875 2029.414062 L 2452.070312 2050.9375 L 2459.765625 2060.078125 L 2473.4375 2076.484375 L 2485.3125 2090.585938 L 2494.882812 2102.03125 L 2510.859375 2120.976562 L 2516.40625 2127.617188 L 2536.40625 2151.25 L 2538.007812 2153.164062 L 2559.648438 2178.710938 L 2561.953125 2181.367188 L 2581.367188 2204.257812 L 2587.5 2211.367188 " transform="matrix(0.1,0,0,-0.1,0,262)"/>
<path style="fill:none;stroke-width:5;stroke-linecap:round;stroke-linejoin:round;stroke:rgb(41.697693%,74.609375%,44.433594%);stroke-opacity:1;stroke-miterlimit:10;" d="M 802.8125 32.5 L 803.242188 58.046875 L 804.492188 83.59375 L 806.5625 109.140625 L 809.492188 134.6875 L 813.28125 160.234375 L 817.890625 185.820312 L 823.320312 211.367188 L 824.570312 216.289062 L 829.453125 236.914062 L 836.367188 262.460938 L 844.0625 288.007812 L 850.117188 306.132812 L 852.5 313.554688 L 861.523438 339.101562 L 871.367188 364.648438 L 875.664062 374.960938 L 881.796875 390.195312 L 892.851562 415.742188 L 901.210938 433.828125 L 904.570312 441.289062 L 916.796875 466.835938 L 926.757812 486.484375 L 929.648438 492.382812 L 942.96875 517.929688 L 952.304688 534.921875 L 956.875 543.515625 L 971.210938 569.0625 L 977.851562 580.273438 L 986.054688 594.609375 L 1001.40625 620.15625 L 1003.398438 623.359375 L 1017.03125 645.703125 L 1028.945312 664.414062 L 1033.164062 671.25 L 1049.6875 696.796875 L 1054.492188 703.984375 L 1066.523438 722.34375 L 1080.039062 742.265625 L 1083.789062 747.890625 L 1101.328125 773.4375 L 1105.585938 779.492188 L 1119.140625 798.984375 L 1131.132812 815.703125 L 1137.34375 824.570312 L 1155.859375 850.117188 L 1156.71875 851.25 L 1174.53125 875.664062 L 1182.265625 885.898438 L 1193.515625 901.210938 L 1207.8125 920.039062 L 1212.773438 926.757812 L 1232.265625 952.304688 L 1233.359375 953.671875 L 1251.914062 977.851562 L 1258.90625 986.679688 L 1271.835938 1003.398438 L 1284.453125 1019.296875 L 1291.953125 1028.945312 L 1310 1051.5625 L 1312.304688 1054.492188 L 1332.773438 1080.039062 L 1335.546875 1083.398438 L 1353.4375 1105.585938 L 1361.09375 1114.882812 L 1374.257812 1131.132812 L 1386.640625 1146.09375 L 1395.273438 1156.71875 L 1412.1875 1177.03125 L 1416.445312 1182.265625 L 1437.734375 1207.773438 L 1437.773438 1207.8125 L 1459.179688 1233.359375 L 1463.28125 1238.164062 L 1480.742188 1258.90625 L 1488.867188 1268.359375 L 1502.421875 1284.453125 L 1514.414062 1298.359375 L 1524.257812 1310 L 1539.960938 1328.203125 L 1546.210938 1335.546875 L 1565.507812 1357.851562 L 1568.28125 1361.09375 L 1590.429688 1386.640625 L 1591.054688 1387.34375 L 1612.65625 1412.1875 L 1616.601562 1416.640625 L 1635.039062 1437.734375 L 1642.148438 1445.78125 L 1657.460938 1463.28125 L 1667.695312 1474.804688 L 1680 1488.867188 L 1693.242188 1503.710938 L 1702.617188 1514.414062 L 1718.789062 1532.5 L 1725.351562 1539.960938 L 1744.335938 1561.171875 L 1748.164062 1565.507812 L 1769.882812 1589.765625 L 1771.054688 1591.054688 L 1793.984375 1616.601562 L 1795.46875 1618.203125 L 1816.953125 1642.148438 L 1821.015625 1646.5625 L 1840.039062 1667.695312 L 1846.5625 1674.804688 L 1863.164062 1693.242188 L 1872.109375 1702.96875 L 1886.40625 1718.789062 L 1897.65625 1731.09375 L 1909.648438 1744.335938 L 1923.203125 1759.101562 L 1933.007812 1769.882812 L 1948.75 1787.03125 L 1956.367188 1795.46875 L 1974.296875 1814.921875 L 1979.804688 1821.015625 L 1999.84375 1842.734375 L 2003.320312 1846.5625 L 2025.390625 1870.46875 L 2026.875 1872.109375 L 2050.46875 1897.65625 L 2050.9375 1898.164062 L 2074.101562 1923.203125 L 2076.484375 1925.742188 L 2097.773438 1948.75 L 2102.03125 1953.28125 L 2121.484375 1974.296875 L 2127.617188 1980.78125 L 2145.273438 1999.84375 L 2153.164062 2008.242188 L 2169.0625 2025.390625 L 2178.710938 2035.625 L 2192.929688 2050.9375 L 2204.257812 2063.007812 L 2216.835938 2076.484375 L 2229.804688 2090.273438 L 2240.742188 2102.03125 L 2255.351562 2117.539062 L 2264.726562 2127.617188 L 2280.898438 2144.765625 L 2288.710938 2153.164062 L 2306.445312 2171.953125 L 2312.734375 2178.710938 L 2331.992188 2199.101562 L 2336.796875 2204.257812 L 2357.539062 2226.210938 L 2360.898438 2229.804688 L 2383.085938 2253.28125 L 2385.039062 2255.351562 L 2408.632812 2280.3125 L 2409.21875 2280.898438 L 2433.398438 2306.445312 L 2434.21875 2307.304688 L 2457.617188 2331.992188 L 2459.765625 2334.257812 L 2481.835938 2357.539062 L 2485.3125 2361.171875 L 2506.09375 2383.085938 L 2510.859375 2388.046875 L 2530.390625 2408.632812 L 2536.40625 2414.921875 L 2554.6875 2434.21875 L 2561.953125 2441.757812 L 2579.023438 2459.765625 L 2587.5 2468.554688 " transform="matrix(0.1,0,0,-0.1,0,262)"/>
<path style="fill:none;stroke-width:5;stroke-linecap:round;stroke-linejoin:round;stroke:rgb(70.896912%,79.492188%,22.216797%);stroke-opacity:1;stroke-miterlimit:10;" d="M 2468.554688 2587.5 L 2459.765625 2579.023438 L 2441.757812 2561.953125 L 2434.21875 2554.6875 L 2414.921875 2536.40625 L 2408.632812 2530.390625 L 2388.046875 2510.859375 L 2383.085938 2506.09375 L 2361.171875 2485.3125 L 2357.539062 2481.835938 L 2334.257812 2459.765625 L 2331.992188 2457.617188 L 2307.304688 2434.21875 L 2306.445312 2433.398438 L 2280.898438 2409.21875 L 2280.3125 2408.632812 L 2255.351562 2385.039062 L 2253.28125 2383.085938 L 2229.804688 2360.898438 L 2226.210938 2357.539062 L 2204.257812 2336.796875 L 2199.101562 2331.992188 L 2178.710938 2312.734375 L 2171.953125 2306.445312 L 2153.164062 2288.710938 L 2144.765625 2280.898438 L 2127.617188 2264.726562 L 2117.539062 2255.351562 L 2102.03125 2240.742188 L 2090.273438 2229.804688 L 2076.484375 2216.835938 L 2063.007812 2204.257812 L 2050.9375 2192.929688 L 2035.625 2178.710938 L 2025.390625 2169.0625 L 2008.242188 2153.164062 L 1999.84375 2145.273438 L 1980.78125 2127.617188 L 1974.296875 2121.484375 L 1953.28125 2102.03125 L 1948.75 2097.773438 L 1925.742188 2076.484375 L 1923.203125 2074.101562 L 1898.164062 2050.9375 L 1897.65625 2050.46875 L 1872.109375 2026.875 L 1870.46875 2025.390625 L 1846.5625 2003.320312 L 1842.734375 1999.84375 L 1821.015625 1979.804688 L 1814.921875 1974.296875 L 1795.46875 1956.367188 L 1787.03125 1948.75 L 1769.882812 1933.007812 L 1759.101562 1923.203125 L 1744.335938 1909.648438 L 1731.09375 1897.65625 L 1718.789062 1886.40625 L 1702.96875 1872.109375 L 1693.242188 1863.164062 L 1674.804688 1846.5625 L 1667.695312 1840.039062 L 1646.5625 1821.015625 L 1642.148438 1816.953125 L 1618.203125 1795.46875 L 1616.601562 1793.984375 L 1591.054688 1771.054688 L 1589.765625 1769.882812 L 1565.507812 1748.164062 L 1561.171875 1744.335938 L 1539.960938 1725.351562 L 1532.5 1718.789062 L 1514.414062 1702.617188 L 1503.710938 1693.242188 L 1488.867188 1680 L 1474.804688 1667.695312 L 1463.28125 1657.460938 L 1445.78125 1642.148438 L 1437.734375 1635.039062 L 1416.640625 1616.601562 L 1412.1875 1612.65625 L 1387.34375 1591.054688 L 1386.640625 1590.429688 L 1361.09375 1568.28125 L 1357.851562 1565.507812 L 1335.546875 1546.210938 L 1328.203125 1539.960938 L 1310 1524.257812 L 1298.359375 1514.414062 L 1284.453125 1502.421875 L 1268.359375 1488.867188 L 1258.90625 1480.742188 L 1238.164062 1463.28125 L 1233.359375 1459.179688 L 1207.8125 1437.773438 L 1207.773438 1437.734375 L 1182.265625 1416.445312 L 1177.03125 1412.1875 L 1156.71875 1395.273438 L 1146.09375 1386.640625 L 1131.132812 1374.257812 L 1114.882812 1361.09375 L 1105.585938 1353.4375 L 1083.398438 1335.546875 L 1080.039062 1332.773438 L 1054.492188 1312.304688 L 1051.5625 1310 L 1028.945312 1291.953125 L 1019.296875 1284.453125 L 1003.398438 1271.835938 L 986.679688 1258.90625 L 977.851562 1251.914062 L 953.671875 1233.359375 L 952.304688 1232.265625 L 926.757812 1212.773438 L 920.039062 1207.8125 L 901.210938 1193.515625 L 885.898438 1182.265625 L 875.664062 1174.53125 L 851.25 1156.71875 L 850.117188 1155.859375 L 824.570312 1137.34375 L 815.703125 1131.132812 L 798.984375 1119.140625 L 779.492188 1105.585938 L 773.4375 1101.328125 L 747.890625 1083.789062 L 742.265625 1080.039062 L 722.34375 1066.523438 L 703.984375 1054.492188 L 696.796875 1049.6875 L 671.25 1033.164062 L 664.414062 1028.945312 L 645.703125 1017.03125 L 623.359375 1003.398438 L 620.15625 1001.40625 L 594.609375 986.054688 L 580.273438 977.851562 L 569.0625 971.210938 L 543.515625 956.875 L 534.921875 952.304688 L 517.929688 942.96875 L 492.382812 929.648438 L 486.484375 926.757812 L 466.835938 916.796875 L 441.289062 904.570312 L 433.828125 901.210938 L 415.742188 892.851562 L 390.195312 881.796875 L 374.960938 875.664062 L 364.648438 871.367188 L 339.101562 861.523438 L 313.554688 852.5 L 306.132812 850.117188 L 288.007812 844.0625 L 262.460938 836.367188 L 236.914062 829.453125 L 216.289062 824.570312 L 211.367188 823.320312 L 185.820312 817.890625 L 160.234375 813.28125 L 134.6875 809.492188 L 109.140625 806.5625 L 83.59375 804.492188 L 58.046875 803.242188 L 32.5 802.8125 " transform="matrix(0.1,0,0,-0.1,0,262)"/>
<path style="fill:none;stroke-width:5;stroke-linecap:round;stroke-linejoin:round;stroke:rgb(100%,84.375%,0%);stroke-opacity:1;stroke-miterlimit:10;" d="M 2211.367188 2587.5 L 2204.257812 2581.367188 L 2181.367188 2561.953125 L 2178.710938 2559.648438 L 2153.164062 2538.007812 L 2151.25 2536.40625 L 2127.617188 2516.40625 L 2120.976562 2510.859375 L 2102.03125 2494.882812 L 2090.585938 2485.3125 L 2076.484375 2473.4375 L 2060.078125 2459.765625 L 2050.9375 2452.070312 L 2029.414062 2434.21875 L 2025.390625 2430.820312 L 1999.84375 2409.648438 L 1998.632812 2408.632812 L 1974.296875 2388.515625 L 1967.65625 2383.085938 L 1948.75 2367.5 L 1936.523438 2357.539062 L 1923.203125 2346.5625 L 1905.234375 2331.992188 L 1897.65625 2325.742188 L 1873.828125 2306.445312 L 1872.109375 2305.039062 L 1846.5625 2284.414062 L 1842.148438 2280.898438 L 1821.015625 2263.867188 L 1810.273438 2255.351562 L 1795.46875 2243.4375 L 1778.242188 2229.804688 L 1769.882812 2223.125 L 1746.015625 2204.257812 L 1744.335938 2202.929688 L 1718.789062 2182.8125 L 1713.476562 2178.710938 L 1693.242188 2162.8125 L 1680.703125 2153.164062 L 1667.695312 2142.96875 L 1647.734375 2127.617188 L 1642.148438 2123.242188 L 1616.601562 2103.671875 L 1614.453125 2102.03125 L 1591.054688 2084.140625 L 1580.859375 2076.484375 L 1565.507812 2064.804688 L 1546.992188 2050.9375 L 1539.960938 2045.625 L 1514.414062 2026.5625 L 1512.773438 2025.390625 L 1488.867188 2007.65625 L 1478.164062 1999.84375 L 1463.28125 1988.867188 L 1443.203125 1974.296875 L 1437.734375 1970.273438 L 1412.1875 1951.835938 L 1407.851562 1948.75 L 1386.640625 1933.554688 L 1371.992188 1923.203125 L 1361.09375 1915.429688 L 1335.742188 1897.65625 L 1335.546875 1897.539062 L 1310 1879.726562 L 1298.828125 1872.109375 L 1284.453125 1862.148438 L 1261.445312 1846.5625 L 1258.90625 1844.804688 L 1233.359375 1827.578125 L 1223.398438 1821.015625 L 1207.8125 1810.585938 L 1184.6875 1795.46875 L 1182.265625 1793.828125 L 1156.71875 1777.226562 L 1145.15625 1769.882812 L 1131.132812 1760.859375 L 1105.585938 1744.765625 L 1104.882812 1744.335938 L 1080.039062 1728.828125 L 1063.554688 1718.789062 L 1054.492188 1713.203125 L 1028.945312 1697.773438 L 1021.210938 1693.242188 L 1003.398438 1682.617188 L 977.851562 1667.734375 L 977.773438 1667.695312 L 952.304688 1653.085938 L 932.773438 1642.148438 L 926.757812 1638.710938 L 901.210938 1624.648438 L 886.210938 1616.601562 L 875.664062 1610.859375 L 850.117188 1597.34375 L 837.8125 1591.054688 L 824.570312 1584.140625 L 798.984375 1571.25 L 787.1875 1565.507812 L 773.4375 1558.671875 L 747.890625 1546.445312 L 733.828125 1539.960938 L 722.34375 1534.53125 L 696.796875 1522.96875 L 677.109375 1514.414062 L 671.25 1511.796875 L 645.703125 1500.898438 L 620.15625 1490.46875 L 616.015625 1488.867188 L 594.609375 1480.3125 L 569.0625 1470.585938 L 548.945312 1463.28125 L 543.515625 1461.289062 L 517.929688 1452.304688 L 492.382812 1443.789062 L 473.242188 1437.734375 L 466.835938 1435.703125 L 441.289062 1427.96875 L 415.742188 1420.703125 L 390.195312 1413.90625 L 383.320312 1412.1875 L 364.648438 1407.5 L 339.101562 1401.523438 L 313.554688 1396.015625 L 288.007812 1391.015625 L 263.4375 1386.640625 L 262.460938 1386.484375 L 236.914062 1382.34375 L 211.367188 1378.671875 L 185.820312 1375.507812 L 160.234375 1372.851562 L 134.6875 1370.664062 L 109.140625 1368.945312 L 83.59375 1367.734375 L 58.046875 1366.992188 L 32.5 1366.757812 " transform="matrix(0.1,0,0,-0.1,0,262)"/>
<path style="fill:none;stroke-width:5;stroke-linecap:round;stroke-linejoin:round;stroke:rgb(100%,69.139099%,9.275818%);stroke-opacity:1;stroke-miterlimit:10;" d="M 32.5 1755.039062 L 58.046875 1755.234375 L 83.59375 1755.78125 L 109.140625 1756.757812 L 134.6875 1758.046875 L 160.234375 1759.765625 L 185.820312 1761.835938 L 211.367188 1764.296875 L 236.914062 1767.148438 L 258.75 1769.882812 L 262.460938 1770.351562 L 288.007812 1773.90625 L 313.554688 1777.8125 L 339.101562 1782.109375 L 364.648438 1786.757812 L 390.195312 1791.796875 L 407.421875 1795.46875 L 415.742188 1797.1875 L 441.289062 1802.890625 L 466.835938 1808.945312 L 492.382812 1815.390625 L 513.476562 1821.015625 L 517.929688 1822.1875 L 543.515625 1829.257812 L 569.0625 1836.679688 L 594.609375 1844.453125 L 601.171875 1846.5625 L 620.15625 1852.539062 L 645.703125 1860.9375 L 671.25 1869.6875 L 678.046875 1872.109375 L 696.796875 1878.710938 L 722.34375 1888.046875 L 747.695312 1897.65625 L 747.890625 1897.734375 L 773.4375 1907.65625 L 798.984375 1917.890625 L 811.796875 1923.203125 L 824.570312 1928.4375 L 850.117188 1939.21875 L 871.953125 1948.75 L 875.664062 1950.351562 L 901.210938 1961.679688 L 926.757812 1973.359375 L 928.75 1974.296875 L 952.304688 1985.234375 L 977.851562 1997.421875 L 982.8125 1999.84375 L 1003.398438 2009.804688 L 1028.945312 2022.5 L 1034.648438 2025.390625 L 1054.492188 2035.390625 L 1080.039062 2048.59375 L 1084.53125 2050.9375 L 1105.585938 2061.953125 L 1131.132812 2075.625 L 1132.773438 2076.484375 L 1156.71875 2089.414062 L 1179.53125 2102.03125 L 1182.265625 2103.515625 L 1207.8125 2117.8125 L 1224.960938 2127.617188 L 1233.359375 2132.304688 L 1258.90625 2147.03125 L 1269.335938 2153.164062 L 1284.453125 2161.953125 L 1310 2177.109375 L 1312.65625 2178.710938 L 1335.546875 2192.382812 L 1355.039062 2204.257812 L 1361.09375 2207.890625 L 1386.640625 2223.59375 L 1396.5625 2229.804688 L 1412.1875 2239.453125 L 1437.421875 2255.351562 L 1437.734375 2255.546875 L 1463.28125 2271.757812 L 1477.421875 2280.898438 L 1488.867188 2288.164062 L 1514.414062 2304.804688 L 1516.914062 2306.445312 L 1539.960938 2321.484375 L 1555.742188 2331.992188 L 1565.507812 2338.4375 L 1591.054688 2355.507812 L 1594.0625 2357.539062 L 1616.601562 2372.695312 L 1631.835938 2383.085938 L 1642.148438 2390.078125 L 1667.695312 2407.617188 L 1669.21875 2408.632812 L 1693.242188 2425.234375 L 1706.054688 2434.21875 L 1718.789062 2443.046875 L 1742.539062 2459.765625 L 1744.335938 2461.015625 L 1769.882812 2479.0625 L 1778.59375 2485.3125 L 1795.46875 2497.265625 L 1814.296875 2510.859375 L 1821.015625 2515.625 L 1846.5625 2534.101562 L 1849.6875 2536.40625 L 1872.109375 2552.65625 L 1884.726562 2561.953125 L 1897.65625 2571.367188 L 1919.453125 2587.5 " transform="matrix(0.1,0,0,-0.1,0,262)"/>
<path style="fill:none;stroke-width:5;stroke-linecap:round;stroke-linejoin:round;stroke:rgb(100%,53.90625%,18.554688%);stroke-opacity:1;stroke-miterlimit:10;" d="M 1573.164062 2587.5 L 1565.507812 2582.8125 L 1539.960938 2567.539062 L 1530.429688 2561.953125 L 1514.414062 2552.421875 L 1488.867188 2537.539062 L 1486.914062 2536.40625 L 1463.28125 2522.734375 L 1442.421875 2510.859375 L 1437.734375 2508.164062 L 1412.1875 2493.710938 L 1396.992188 2485.3125 L 1386.640625 2479.492188 L 1361.09375 2465.46875 L 1350.507812 2459.765625 L 1335.546875 2451.601562 L 1310 2437.929688 L 1302.851562 2434.21875 L 1284.453125 2424.453125 L 1258.90625 2411.210938 L 1253.90625 2408.632812 L 1233.359375 2398.125 L 1207.8125 2385.273438 L 1203.398438 2383.085938 L 1182.265625 2372.578125 L 1156.71875 2360.15625 L 1151.210938 2357.539062 L 1131.132812 2347.890625 L 1105.585938 2335.898438 L 1097.109375 2331.992188 L 1080.039062 2324.101562 L 1054.492188 2312.539062 L 1040.703125 2306.445312 L 1028.945312 2301.210938 L 1003.398438 2290.078125 L 981.71875 2280.898438 L 977.851562 2279.257812 L 952.304688 2268.59375 L 926.757812 2258.203125 L 919.492188 2255.351562 L 901.210938 2248.046875 L 875.664062 2238.164062 L 853.398438 2229.804688 L 850.117188 2228.554688 L 824.570312 2219.140625 L 798.984375 2210.039062 L 782.265625 2204.257812 L 773.4375 2201.171875 L 747.890625 2192.539062 L 722.34375 2184.257812 L 704.6875 2178.710938 L 696.796875 2176.210938 L 671.25 2168.398438 L 645.703125 2160.898438 L 620.15625 2153.710938 L 618.085938 2153.164062 L 594.609375 2146.757812 L 569.0625 2140.078125 L 543.515625 2133.75 L 517.929688 2127.695312 L 517.5 2127.617188 L 492.382812 2121.914062 L 466.835938 2116.40625 L 441.289062 2111.25 L 415.742188 2106.367188 L 391.40625 2102.03125 L 390.195312 2101.835938 L 364.648438 2097.539062 L 339.101562 2093.59375 L 313.554688 2089.921875 L 288.007812 2086.601562 L 262.460938 2083.59375 L 236.914062 2080.898438 L 211.367188 2078.515625 L 186.523438 2076.484375 L 185.820312 2076.445312 L 160.234375 2074.6875 L 134.6875 2073.242188 L 109.140625 2072.109375 L 83.59375 2071.289062 L 58.046875 2070.820312 L 32.5 2070.664062 " transform="matrix(0.1,0,0,-0.1,0,262)"/>
<path style="fill:none;stroke-width:5;stroke-linecap:round;stroke-linejoin:round;stroke:rgb(100%,38.818359%,27.830505%);stroke-opacity:1;stroke-miterlimit:10;" d="M 1121.875 2587.5 L 1105.585938 2580.546875 L 1080.039062 2569.882812 L 1060.546875 2561.953125 L 1054.492188 2559.453125 L 1028.945312 2549.21875 L 1003.398438 2539.21875 L 995.976562 2536.40625 L 977.851562 2529.414062 L 952.304688 2519.882812 L 927.539062 2510.859375 L 926.757812 2510.546875 L 901.210938 2501.445312 L 875.664062 2492.578125 L 854.101562 2485.3125 L 850.117188 2483.945312 L 824.570312 2475.507812 L 798.984375 2467.34375 L 774.414062 2459.765625 L 773.4375 2459.453125 L 747.890625 2451.757812 L 722.34375 2444.296875 L 696.796875 2437.148438 L 685.859375 2434.21875 L 671.25 2430.195312 L 645.703125 2423.515625 L 620.15625 2417.109375 L 594.609375 2410.9375 L 584.609375 2408.632812 L 569.0625 2405.039062 L 543.515625 2399.375 L 517.929688 2393.984375 L 492.382812 2388.867188 L 466.835938 2384.023438 L 461.5625 2383.085938 L 441.289062 2379.453125 L 415.742188 2375.117188 L 390.195312 2371.054688 L 364.648438 2367.304688 L 339.101562 2363.828125 L 313.554688 2360.585938 L 288.007812 2357.65625 L 286.914062 2357.539062 L 262.460938 2354.960938 L 236.914062 2352.578125 L 211.367188 2350.46875 L 185.820312 2348.632812 L 160.234375 2347.070312 L 134.6875 2345.820312 L 109.140625 2344.804688 L 83.59375 2344.101562 L 58.046875 2343.671875 L 32.5 2343.554688 " transform="matrix(0.1,0,0,-0.1,0,262)"/>
</g>
</svg>
